<?xml version="1.0" standalone="no"?>
<!DOCTYPE svg PUBLIC "-//W3C//DTD SVG 20010904//EN"
 "http://www.w3.org/TR/2001/REC-SVG-20010904/DTD/svg10.dtd">
<svg version="1.0" xmlns="http://www.w3.org/2000/svg"
 width="208.000000pt" height="202.000000pt" viewBox="0 0 208.000000 202.000000"
 preserveAspectRatio="xMidYMid meet">

<g transform="translate(0.000000,202.000000) scale(0.100000,-0.100000)"
fill="#000000" stroke="none">
<path d="M0 1010 l0 -1010 1040 0 1040 0 0 1010 0 1010 -1040 0 -1040 0 0
-1010z m1410 715 l0 -55 -50 0 -50 0 0 55 0 55 50 0 50 0 0 -55z m225 -5 l0
-55 -55 0 -55 0 -3 44 c-5 67 0 72 60 69 l53 -3 0 -55z m215 0 l0 -60 -60 0
-60 0 0 60 0 60 60 0 60 0 0 -60z m-660 0 l0 -50 -50 0 -50 0 0 50 0 50 50 0
50 0 0 -50z m-450 5 c0 -33 -2 -35 -35 -35 -33 0 -35 2 -35 35 0 33 2 35 35
35 33 0 35 -2 35 -35z m225 -5 c0 -34 -1 -35 -42 -38 l-43 -3 0 41 0 41 43 -3
c41 -3 42 -4 42 -38z m-675 0 c0 -23 -4 -30 -20 -30 -23 0 -35 22 -26 45 3 8
15 15 26 15 16 0 20 -7 20 -30z m220 0 c0 -27 -3 -30 -30 -30 -27 0 -30 3 -30
30 0 27 3 30 30 30 27 0 30 -3 30 -30z m900 -205 l0 -55 -55 0 -55 0 0 55 0
55 55 0 55 0 0 -55z m225 -5 l0 -55 -57 -3 -58 -3 0 61 0 61 58 -3 57 -3 0
-55z m215 5 l0 -55 -55 0 -55 0 0 55 0 55 55 0 55 0 0 -55z m-880 -6 l0 -50
-47 3 -48 3 -3 48 -3 47 50 0 51 0 0 -51z m230 1 l0 -50 -55 0 -55 0 0 50 0
50 55 0 55 0 0 -50z m-680 0 c0 -39 -1 -40 -35 -40 -34 0 -35 1 -35 40 0 39 1
40 35 40 34 0 35 -1 35 -40z m225 -5 c0 -39 -1 -40 -37 -43 l-38 -3 0 46 0 46
38 -3 c36 -3 37 -4 37 -43z m-445 5 c0 -27 -3 -30 -30 -30 -27 0 -30 3 -30 30
0 27 3 30 30 30 27 0 30 -3 30 -30z m678 -207 l3 -53 -55 0 -56 0 0 48 c0 27
3 51 6 54 3 3 26 5 52 4 l47 -1 3 -52z m220 -6 l3 -58 -58 3 -58 3 -3 44 c-5
67 0 72 60 69 l53 -3 3 -58z m222 3 l0 -60 -60 0 -60 0 0 60 0 60 60 0 60 0 0
-60z m218 -3 l3 -58 -58 3 -58 3 -2 45 c-3 68 0 71 59 68 l53 -3 3 -58z m-880
1 l3 -48 -50 0 -51 0 0 51 0 50 48 -3 47 -3 3 -47z m1083 48 c2 -3 3 -25 1
-50 l-4 -46 -49 0 -49 0 0 50 0 50 48 0 c27 0 51 -2 53 -4z m-1531 -41 c0 -33
-2 -35 -35 -35 -33 0 -35 2 -35 35 0 33 2 35 35 35 33 0 35 -2 35 -35z m218
-7 l3 -38 -45 0 -46 0 0 41 0 40 43 -3 c41 -3 42 -4 45 -40z m452 -208 l0 -60
-55 0 -55 0 0 60 0 60 55 0 55 0 0 -60z m220 0 l0 -61 -57 3 -58 3 -3 44 c-5
66 0 71 63 71 l55 0 0 -60z m210 0 l0 -60 -55 0 -55 0 0 60 0 60 55 0 55 0 0
-60z m-880 0 l0 -50 -45 0 -45 0 0 50 0 50 45 0 45 0 0 -50z m228 -2 l-3 -53
-52 -3 -53 -3 0 55 0 56 56 0 55 0 -3 -52z m872 -4 l0 -55 -52 3 -53 3 -3 39
c-5 59 1 66 58 66 l50 0 0 -56z m215 6 l0 -45 -47 -3 -48 -3 0 51 0 51 48 -3
47 -3 0 -45z m-1535 -10 l0 -40 -40 0 -40 0 0 40 0 40 40 0 40 0 0 -40z m670
-200 l0 -60 -60 0 -60 0 0 60 0 60 60 0 60 0 0 -60z m-440 -5 l0 -55 -50 0
-50 0 0 55 0 55 50 0 50 0 0 -55z m220 -6 l0 -60 -52 3 -53 3 -3 58 -3 57 56
0 55 0 0 -61z m438 4 l-3 -58 -55 0 -55 0 -3 58 -3 57 61 0 61 0 -3 -57z m212
2 l0 -55 -50 0 -50 0 0 55 0 55 50 0 50 0 0 -55z m220 -7 l0 -49 -47 3 c-48 3
-48 3 -51 42 -5 57 0 62 52 58 l46 -4 0 -50z m-1312 5 l-3 -48 -47 -3 -48 -3
0 50 0 51 51 0 50 0 -3 -47z m1517 2 c0 -39 -1 -40 -37 -43 l-38 -3 0 46 0 46
38 -3 c36 -3 37 -4 37 -43z m-1295 -205 l0 -60 -55 0 -55 0 0 60 0 60 55 0 55
0 0 -60z m-220 -5 l0 -55 -50 0 -50 0 0 49 0 50 48 4 c26 2 48 4 50 5 1 1 2
-23 2 -53z m448 -2 l-3 -58 -57 -3 -58 -3 0 61 0 60 60 0 61 0 -3 -57z m212 2
l0 -55 -55 0 -55 0 0 55 0 55 55 0 55 0 0 -55z m218 -2 l3 -53 -55 0 -56 0 0
48 c0 27 3 52 7 56 4 4 28 6 53 4 l45 -3 3 -52z m210 5 l3 -48 -50 0 -51 0 0
51 0 50 48 -3 47 -3 3 -47z m212 -8 l0 -40 -40 0 -40 0 0 40 0 40 40 0 40 0 0
-40z m218 3 c3 -32 2 -33 -37 -33 -38 0 -41 2 -41 28 0 37 8 44 45 40 26 -3
30 -7 33 -35z m-1518 -213 l0 -60 -55 0 -55 0 0 60 0 60 55 0 55 0 0 -60z
m228 3 l-3 -58 -57 -3 -58 -3 0 61 0 60 60 0 61 0 -3 -57z m212 -3 l0 -60 -55
0 -55 0 0 60 0 60 55 0 55 0 0 -60z m220 4 l0 -55 -52 3 -53 3 -3 39 c-5 59 1
66 58 66 l50 0 0 -56z m210 -4 l0 -50 -50 0 -50 0 0 50 0 50 50 0 50 0 0 -50z
m210 0 l0 -40 -40 0 -40 0 0 40 0 40 40 0 40 0 0 -40z m210 5 c0 -33 -2 -35
-35 -35 -33 0 -35 2 -35 35 0 33 2 35 35 35 33 0 35 -2 35 -35z m210 -5 c0
-27 -3 -30 -30 -30 -27 0 -30 3 -30 30 0 27 3 30 30 30 27 0 30 -3 30 -30z
m-1490 -210 l0 -60 -60 0 -60 0 0 53 c0 30 3 57 7 60 3 4 30 7 60 7 l53 0 0
-60z m210 5 l0 -55 -55 0 -55 0 0 55 0 55 55 0 55 0 0 -55z m215 -5 l0 -45
-52 -3 -53 -3 0 51 0 51 53 -3 52 -3 0 -45z m215 -1 l0 -50 -47 3 -48 3 -3 48
-3 47 50 0 51 0 0 -51z m210 -5 l0 -45 -37 3 c-33 3 -38 7 -41 31 -5 45 4 57
43 57 35 0 35 0 35 -46z m218 4 l3 -38 -40 0 c-40 0 -41 1 -41 33 0 42 7 49
45 45 27 -3 30 -7 33 -40z m202 2 c0 -27 -3 -30 -30 -30 -27 0 -30 3 -30 30 0
27 3 30 30 30 27 0 30 -3 30 -30z m210 -5 c0 -20 -5 -25 -25 -25 -18 0 -25 5
-25 18 0 24 8 32 32 32 13 0 18 -7 18 -25z"/>
</g>
</svg>
